HIERARCHY
ROOT Hips
{
    OFFSET 0.000000 0.000000 0.000000
    CHANNELS 6 Xposition Yposition Zposition Zrotation Xrotation Yrotation
    JOINT Spine
    {
        OFFSET -0.000000 14.517291 0.000000
        CHANNELS 3 Zrotation Xrotation Yrotation
        JOINT Spine1
        {
            OFFSET -0.000000 37.558300 0.000000
            CHANNELS 3 Zrotation Xrotation Yrotation
            JOINT Neck
            {
                OFFSET -0.000000 37.404057 3.400369
                CHANNELS 3 Zrotation Xrotation Yrotation
                JOINT Head
                {
                    OFFSET -0.000000 24.785618 -3.540803
                    CHANNELS 3 Zrotation Xrotation Yrotation
                    End Site
                    {
                        OFFSET -0.000000 35.408028 0.000000
                    }
                }
            }
            JOINT LeftShoulder
            {
                OFFSET 6.992933 33.973492 -0.192664
                CHANNELS 3 Zrotation Xrotation Yrotation
                JOINT LeftArm
                {
                    OFFSET 21.527611 0.000000 0.000000
                    CHANNELS 3 Zrotation Xrotation Yrotation
                    JOINT LeftForeArm
                    {
                        OFFSET 56.353916 0.000000 0.000000
                        CHANNELS 3 Zrotation Xrotation Yrotation
                        JOINT LeftHand
                        {
                            OFFSET 47.774071 0.000000 0.000000
                            CHANNELS 3 Zrotation Xrotation Yrotation
                            End Site
                            {
                                OFFSET 26.556021 0.000000 0.000000
                            }
                        }
                    }
                }
            }
            JOINT RightShoulder
            {
                OFFSET -7.065357 33.973492 -0.192664
                CHANNELS 3 Zrotation Xrotation Yrotation
                JOINT RightArm
                {
                    OFFSET -21.527611 0.000000 0.000000
                    CHANNELS 3 Zrotation Xrotation Yrotation
                    JOINT RightForeArm
                    {
                        OFFSET -56.353916 0.000000 0.000000
                        CHANNELS 3 Zrotation Xrotation Yrotation
                        JOINT RightHand
                        {
                            OFFSET -47.774071 0.000000 0.000000
                            CHANNELS 3 Zrotation Xrotation Yrotation
                            End Site
                            {
                                OFFSET -26.556021 0.000000 0.000000
                            }
                        }
                    }
                }
            }
        }
    }
    JOINT LeftUpLeg
    {
        OFFSET 17.704014 0.000000 0.000000
        CHANNELS 3 Zrotation Xrotation Yrotation
        JOINT LeftLeg
        {
            OFFSET -0.000000 -81.181816 0.000000
            CHANNELS 3 Zrotation Xrotation Yrotation
            JOINT LeftFoot
            {
                OFFSET -0.000000 -62.821102 0.000000
                CHANNELS 3 Zrotation Xrotation Yrotation
                JOINT LeftToeBase
                {
                    OFFSET -0.000000 -11.507608 26.556021
                    CHANNELS 3 Zrotation Xrotation Yrotation
                    End Site
                    {
                        OFFSET -0.000000 0.000000 7.081605
                    }
                }
            }
        }
    }
    JOINT RightUpLeg
    {
        OFFSET -17.704014 0.000000 0.000000
        CHANNELS 3 Zrotation Xrotation Yrotation
        JOINT RightLeg
        {
            OFFSET -0.000000 -81.181816 0.000000
            CHANNELS 3 Zrotation Xrotation Yrotation
            JOINT RightFoot
            {
                OFFSET -0.000000 -62.821102 0.000000
                CHANNELS 3 Zrotation Xrotation Yrotation
                JOINT RightToeBase
                {
                    OFFSET -0.000000 -11.507608 26.556021
                    CHANNELS 3 Zrotation Xrotation Yrotation
                    End Site
                    {
                        OFFSET -0.000000 0.000000 7.081605
                    }
                }
            }
        }
    }
}
MOTION
Frames:    4
Frame Time:    0.008333
27.705843    154.971130    -32.747562    3.132462    7.850156    -58.820854    2.026630    2.225195    3.768339    2.783751    -0.204643    1.272606    16.382946    -6.436889    15.008021    -8.628179    15.269666    12.185991    16.644127    -6.334932    -17.441114    -10.291743    -20.964239    -49.282677    10.633645    -41.538353    -17.430731    -27.026316    -30.616499    -46.662857    -9.666812    3.122264    1.723840    36.287186    9.705306    81.050949    7.972420    -5.008473    104.117203    3.315224    -14.547497    19.786686    30.628132    -28.461945    5.418407    -15.234508    28.504604    -9.104311    -9.535182    -4.770252    37.798244    0.000000    0.000000    0.000000    -14.146799    -11.206787    -4.716766    3.431385    23.283768    -1.253366    10.988909    -11.686047    -8.964177    0.000000    0.000000    0.000000    
27.552721    155.014832    -33.059494    3.097630    7.574666    -58.788582    2.221223    2.104729    3.742301    2.636864    -0.110458    1.262027    16.282047    -6.343393    14.991202    -8.625172    15.313780    12.206675    16.560764    -6.239198    -17.389454    -10.293152    -20.783722    -49.308331    10.701989    -41.497810    -17.265055    -26.970280    -30.598047    -46.657551    -9.697771    3.184631    1.761438    36.211639    9.755125    81.047890    8.005514    -4.976263    104.106056    3.277789    -14.561842    19.799831    30.350754    -28.107433    5.213626    -15.019927    28.011387    -9.173079    -9.763936    -4.534653    37.885345    0.000000    0.000000    0.000000    -14.264272    -11.114958    -4.721214    3.457438    23.483118    -1.173515    10.872907    -11.962196    -8.925329    0.000000    0.000000    0.000000    
27.404896    155.062286    -33.370529    3.047556    7.291428    -58.764175    2.382542    2.032258    3.743079    2.537148    -0.048476    1.261382    16.143173    -6.268780    14.945677    -8.611790    15.370883    12.203444    16.463364    -6.161138    -17.372288    -10.360145    -20.665533    -49.334736    10.720543    -41.352894    -17.123951    -26.908747    -30.481945    -46.589680    -9.773477    3.249873    1.769021    36.233086    9.780340    81.030594    8.085930    -4.828614    104.077492    3.266723    -14.515789    19.807970    30.071383    -27.733019    4.994702    -14.809514    27.509686    -9.169805    -10.007529    -4.281921    37.923767    0.000000    0.000000    0.000000    -14.376737    -11.015062    -4.716115    3.481435    23.688202    -1.098822    10.746654    -12.225146    -8.875628    0.000000    0.000000    0.000000    
27.261967    155.098755    -33.675240    3.029777    7.048715    -58.751625    2.553897    1.893671    3.768471    2.464681    0.022195    1.268372    15.932207    -6.231409    14.873805    -8.511352    15.468030    12.185709    16.289602    -6.056899    -17.421011    -10.294269    -20.484430    -49.290440    10.790653    -41.269497    -16.953037    -26.877087    -30.388044    -46.653507    -9.872126    3.349250    1.729802    36.277969    9.787381    81.050095    8.171207    -4.642604    104.015816    3.216201    -14.439832    19.787682    29.824310    -27.400423    4.864733    -14.568020    27.039343    -9.244233    -10.236002    -4.062393    37.962811    0.000000    0.000000    0.000000    -14.473765    -10.972258    -4.740360    3.491053    23.911524    -0.985931    10.628013    -12.498674    -8.855907    0.000000    0.000000    0.000000    
